<svg width="19" height="39" viewBox="0 0 19 39" fill="none" xmlns="http://www.w3.org/2000/svg">
<path d="M4.32938 7.61207C4.32938 8.59004 4.32938 12.9552 4.32938 12.9552H0.39209V19.4887H4.32938V38.9042H12.4174V19.4893H17.8449C17.8449 19.4893 18.3532 16.3565 18.5996 12.9311C17.8931 12.9311 12.448 12.9311 12.448 12.9311C12.448 12.9311 12.448 9.13005 12.448 8.46381C12.448 7.79613 13.3298 6.898 14.2014 6.898C15.0714 6.898 16.9075 6.898 18.6081 6.898C18.6081 6.00845 18.6081 2.93484 18.6081 0.0961914C16.3378 0.0961914 13.755 0.0961914 12.6165 0.0961914C4.12946 0.0957403 4.32938 6.6358 4.32938 7.61207Z" fill="white"/>
</svg>
