<svg width="19" height="13" viewBox="0 0 19 13" fill="none" xmlns="http://www.w3.org/2000/svg">
<path d="M1 6.47326L0.433212 6.15506L0.263953 6.45655L0.419355 6.76541L1 6.47326ZM18 6.49126L18.5668 6.80946L18.736 6.50797L18.5806 6.19911L18 6.49126ZM9.3399 12V12.65V12ZM1.56679 6.79146C2.06301 5.90756 3.05392 4.60883 4.45169 3.53722C5.84491 2.46911 7.61018 1.65 9.67327 1.65V0.35C7.25111 0.35 5.21515 1.31384 3.66074 2.50552C2.1109 3.69371 1.00779 5.1316 0.433212 6.15506L1.56679 6.79146ZM9.67327 1.65C13.7962 1.65 16.5054 4.96699 17.4194 6.78341L18.5806 6.19911C17.5752 4.20083 14.5208 0.35 9.67327 0.35V1.65ZM17.4332 6.17306C16.9358 7.05907 15.947 8.36696 14.5524 9.44697C13.1621 10.5236 11.401 11.35 9.3399 11.35V12.65C11.7641 12.65 13.7976 11.6757 15.3483 10.4748C16.8947 9.27727 17.9934 7.8308 18.5668 6.80946L17.4332 6.17306ZM9.3399 11.35C5.21905 11.35 2.49604 8.00044 1.58064 6.18111L0.419355 6.76541C1.42332 8.76078 4.49024 12.65 9.3399 12.65V11.35Z" fill="#848484"/>
<circle cx="9.5" cy="6.5" r="1.5" fill="#848484"/>
</svg>
