<svg width="48" height="49" viewBox="0 0 48 49" fill="none" xmlns="http://www.w3.org/2000/svg">
<rect y="0.616211" width="48" height="48" rx="24" fill="white"/>
<path fill-rule="evenodd" clip-rule="evenodd" d="M23.8615 15.064C22.5818 15.064 21.5566 16.0891 21.5566 17.3688V19.5902C21.5566 20.87 22.5818 21.8951 23.8615 21.8951C25.1413 21.8951 26.1664 20.87 26.1664 19.5902V17.3688C26.1664 16.0891 25.1413 15.064 23.8615 15.064ZM20.0566 17.3688C20.0566 15.2607 21.7534 13.564 23.8615 13.564C25.9697 13.564 27.6664 15.2607 27.6664 17.3688V19.5902C27.6664 21.6984 25.9697 23.3951 23.8615 23.3951C21.7534 23.3951 20.0566 21.6984 20.0566 19.5902V17.3688ZM16.8796 32.1686H31.12C30.7425 28.3929 28.0461 25.6156 25.0004 25.6156H22.9752C19.9534 25.6156 17.2564 28.3916 16.8796 32.1686ZM15.336 32.9068C15.4102 28.1808 18.7029 24.1156 22.9752 24.1156H25.0004C29.2955 24.1156 32.5885 28.1791 32.6637 32.9067C32.6669 33.1076 32.5894 33.3015 32.4484 33.4447C32.3074 33.588 32.1148 33.6686 31.9138 33.6686H16.0859C15.885 33.6686 15.6924 33.588 15.5515 33.4448C15.4105 33.3016 15.3329 33.1078 15.336 32.9068Z" fill="#FA7846"/>
</svg>
