<svg width="33" height="33" viewBox="0 0 33 33" fill="none" xmlns="http://www.w3.org/2000/svg">
<path fill-rule="evenodd" clip-rule="evenodd" d="M0.848145 8.47217C0.848145 4.05389 4.42987 0.472168 8.84815 0.472168H24.5281C28.9464 0.472168 32.5281 4.05389 32.5281 8.47217V24.1522C32.5281 28.5704 28.9464 32.1522 24.5281 32.1522H8.84815C4.42987 32.1522 0.848145 28.5704 0.848145 24.1522V8.47217ZM16.6881 22.1121C19.8913 22.1121 22.4881 19.5154 22.4881 16.3121C22.4881 13.1089 19.8913 10.5121 16.6881 10.5121C13.4848 10.5121 10.8881 13.1089 10.8881 16.3121C10.8881 19.5154 13.4848 22.1121 16.6881 22.1121ZM16.6881 25.1121C21.5482 25.1121 25.4881 21.1722 25.4881 16.3121C25.4881 11.452 21.5482 7.51214 16.6881 7.51214C11.828 7.51214 7.88807 11.452 7.88807 16.3121C7.88807 21.1722 11.828 25.1121 16.6881 25.1121ZM25.4881 9.27219C26.4601 9.27219 27.2481 8.48421 27.2481 7.51219C27.2481 6.54017 26.4601 5.75219 25.4881 5.75219C24.5161 5.75219 23.7281 6.54017 23.7281 7.51219C23.7281 8.48421 24.5161 9.27219 25.4881 9.27219Z" fill="white"/>
</svg>
