<svg width="76" height="26" viewBox="0 0 76 26" fill="none" xmlns="http://www.w3.org/2000/svg">
<g clip-path="url(#clip0_183_48)">
<path d="M39.1524 8.54768C39.1093 11.9873 42.1754 13.9069 44.4852 15.0481C46.8584 16.2191 47.6554 16.97 47.6464 18.017C47.6283 19.6198 45.7533 20.327 43.9983 20.3545C40.9368 20.4027 39.1569 19.5164 37.7416 18.8459L36.6388 24.0789C38.0586 24.7425 40.6877 25.3211 43.4141 25.3464C49.8135 25.3464 54.0005 22.1432 54.0231 17.1766C54.048 10.8737 45.425 10.5247 45.4838 7.70728C45.5042 6.85311 46.3081 5.94154 48.0699 5.70963C48.9417 5.59252 51.3488 5.50297 54.0775 6.77734L55.1486 1.71431C53.6812 1.17241 51.7949 0.653481 49.4467 0.653481C43.4232 0.653481 39.1863 3.90025 39.1524 8.54768ZM65.4406 1.08975C64.2721 1.08975 63.2871 1.7809 62.8478 2.84172L53.7061 24.9744H60.101L61.3736 21.4085H69.1883L69.9265 24.9744H75.5628L70.6444 1.08975H65.4406ZM66.3351 7.54196L68.1806 16.5108H63.1263L66.3351 7.54196ZM31.3988 1.08975L26.3581 24.9744H32.4518L37.4902 1.08975H31.3988ZM22.384 1.08975L16.0412 17.3466L13.4755 3.52368C13.1743 1.98066 11.9855 1.08975 10.6653 1.08975H0.296306L0.151367 1.78319C2.27997 2.25161 4.69842 3.00705 6.16354 3.8153C7.06027 4.30897 7.31615 4.74064 7.61053 5.91398L12.4701 24.9744H18.9102L28.7834 1.08975H22.384Z" fill="white"/>
</g>
<defs>
<clipPath id="clip0_183_48">
<rect width="75.7143" height="25" fill="white" transform="translate(0 0.5)"/>
</clipPath>
</defs>
</svg>
